<svg width="23" height="22" viewBox="0 0 23 22" fill="none" xmlns="http://www.w3.org/2000/svg">
<path d="M4.17676 0H1.17676C0.911541 0 0.657187 0.105356 0.46965 0.292892C0.282114 0.480429 0.176758 0.734784 0.176758 1V21C0.176758 21.2652 0.282114 21.5196 0.46965 21.7071C0.657187 21.8946 0.911541 22 1.17676 22H4.17676V0Z" fill="#D6B1FF"/>
<path d="M6.17676 22H16.1768V0H6.17676V22ZM11.1768 18C10.9115 18 10.6572 17.8946 10.4697 17.7071C10.2821 17.5196 10.1768 17.2652 10.1768 17C10.1768 16.7348 10.2821 16.4804 10.4697 16.2929C10.6572 16.1054 10.9115 16 11.1768 16C11.442 16 11.6963 16.1054 11.8839 16.2929C12.0714 16.4804 12.1768 16.7348 12.1768 17C12.1768 17.2652 12.0714 17.5196 11.8839 17.7071C11.6963 17.8946 11.442 18 11.1768 18ZM11.1768 4C11.442 4 11.6963 4.10536 11.8839 4.29289C12.0714 4.48043 12.1768 4.73478 12.1768 5C12.1768 5.26522 12.0714 5.51957 11.8839 5.70711C11.6963 5.89464 11.442 6 11.1768 6C10.9115 6 10.6572 5.89464 10.4697 5.70711C10.2821 5.51957 10.1768 5.26522 10.1768 5C10.1768 4.73478 10.2821 4.48043 10.4697 4.29289C10.6572 4.10536 10.9115 4 11.1768 4ZM11.1768 10C11.442 10 11.6963 10.1054 11.8839 10.2929C12.0714 10.4804 12.1768 10.7348 12.1768 11C12.1768 11.2652 12.0714 11.5196 11.8839 11.7071C11.6963 11.8946 11.442 12 11.1768 12C10.9115 12 10.6572 11.8946 10.4697 11.7071C10.2821 11.5196 10.1768 11.2652 10.1768 11C10.1768 10.7348 10.2821 10.4804 10.4697 10.2929C10.6572 10.1054 10.9115 10 11.1768 10Z" fill="#F03E3D"/>
<path d="M21.1768 0H18.1768V22H21.1768C21.442 22 21.6963 21.8946 21.8839 21.7071C22.0714 21.5196 22.1768 21.2652 22.1768 21V1C22.1768 0.734784 22.0714 0.480429 21.8839 0.292892C21.6963 0.105356 21.442 0 21.1768 0Z" fill="#F03E3D"/>
</svg>
