<svg aria-hidden="true" style="position: absolute; width: 0; height: 0; overflow: hidden;" version="1.1" xmlns="http://www.w3.org/2000/svg" xmlns:xlink="http://www.w3.org/1999/xlink">
<defs>
<symbol id="icon-stats" viewBox="0 0 29 32">
<path d="M14.764 6.858c-0.658 0-1.199 0.578-1.199 1.293v15.711c0 0.702 0.542 1.279 1.199 1.279 0.67 0 1.212-0.578 1.212-1.279v-15.711c0-0.715-0.542-1.293-1.212-1.293zM7.994 11.935c-0.658 0-1.199 0.578-1.199 1.293v10.634c0 0.702 0.542 1.279 1.199 1.279 0.67 0 1.212-0.578 1.212-1.279v-10.634c0-0.715-0.542-1.293-1.212-1.293zM20.231 18.841c0-0.715 0.542-1.293 1.212-1.293 0.658 0 1.199 0.578 1.199 1.293v5.021c0 0.702-0.542 1.279-1.212 1.279-0.658 0-1.199-0.578-1.199-1.279v-5.021z"></path>
<path d="M13.82 8.151c0-0.592 0.444-1.037 0.943-1.037v-0.512c-0.816 0-1.455 0.71-1.455 1.549h0.512zM13.82 23.862v-15.711h-0.512v15.711h0.512zM14.764 24.886c-0.501 0-0.943-0.447-0.943-1.023h-0.512c0 0.827 0.641 1.535 1.455 1.535v-0.512zM15.72 23.862c0 0.574-0.441 1.023-0.956 1.023v0.512c0.826 0 1.468-0.706 1.468-1.535h-0.512zM15.72 8.151v15.711h0.512v-15.711h-0.512zM14.764 7.114c0.514 0 0.956 0.447 0.956 1.037h0.512c0-0.841-0.641-1.549-1.468-1.549v0.512zM7.051 13.228c0-0.592 0.444-1.037 0.943-1.037v-0.512c-0.816 0-1.455 0.71-1.455 1.549h0.512zM7.051 23.863v-10.634h-0.512v10.634h0.512zM7.994 24.886c-0.501 0-0.943-0.447-0.943-1.023h-0.512c0 0.827 0.641 1.535 1.455 1.535v-0.512zM8.95 23.863c0 0.574-0.441 1.023-0.956 1.023v0.512c0.826 0 1.468-0.706 1.468-1.535h-0.512zM8.95 13.228v10.634h0.512v-10.634h-0.512zM7.994 12.191c0.514 0 0.956 0.447 0.956 1.037h0.512c0-0.841-0.641-1.549-1.468-1.549v0.512zM21.443 17.292c-0.827 0-1.468 0.708-1.468 1.549h0.512c0-0.59 0.442-1.037 0.956-1.037v-0.512zM22.898 18.841c0-0.839-0.639-1.549-1.455-1.549v0.512c0.499 0 0.943 0.445 0.943 1.037h0.512zM22.898 23.862v-5.021h-0.512v5.021h0.512zM21.43 25.398c0.826 0 1.468-0.706 1.468-1.535h-0.512c0 0.574-0.441 1.023-0.956 1.023v0.512zM19.975 23.862c0 0.827 0.641 1.535 1.455 1.535v-0.512c-0.501 0-0.943-0.447-0.943-1.023h-0.512zM19.975 18.841v5.021h0.512v-5.021h-0.512z"></path>
</symbol>
<symbol id="icon-grafs" viewBox="0 0 38 32">
<path fill="none" stroke="#000" style="stroke: var(--color1, #000)" stroke-linejoin="miter" stroke-linecap="butt" stroke-miterlimit="4" stroke-width="0.3556" d="M27.615 9.524c0.317-0.050 0.641 0.042 0.898 0.26 0.539 0.463 0.648 1.323 0.234 1.933l-0.030 0.046v0.033l-5.378 7.612c-0.201 0.294-0.499 0.482-0.822 0.526s-0.652-0.057-0.91-0.286l-0.002-0.002-5.34-4.593-0.113 0.161-4.685 6.648c-0.3 0.522-0.873 0.745-1.392 0.565-0.524-0.181-0.884-0.735-0.855-1.361v-0.009c-0.002-0.269 0.070-0.53 0.204-0.75l0.063-0.094 5.593-7.912c0.199-0.292 0.493-0.479 0.813-0.526s0.646 0.048 0.905 0.269v-0.001l5.339 4.612 0.113-0.16 4.563-6.438c0.194-0.293 0.484-0.483 0.801-0.533z"></path>
<path d="M28.895 11.854l-5.408 7.655c-0.228 0.333-0.569 0.55-0.945 0.601s-0.756-0.067-1.051-0.328l-5.192-4.465-4.676 6.634c-0.339 0.59-0.998 0.855-1.605 0.645s-1.007-0.842-0.975-1.538c-0.003-0.344 0.103-0.679 0.3-0.948l5.591-7.91c0.225-0.33 0.562-0.547 0.934-0.602s0.75 0.057 1.046 0.31l5.192 4.484 4.559-6.434c0.219-0.332 0.552-0.552 0.922-0.61s0.746 0.050 1.042 0.3c0.611 0.524 0.729 1.486 0.266 2.169v0.036z"></path>
</symbol>
<symbol id="icon-instagram" viewBox="0 0 31 32">
<path fill="none" stroke="#02897a" style="stroke: var(--color2, #02897a)" stroke-linejoin="round" stroke-linecap="round" stroke-miterlimit="4" stroke-width="2.56" d="M21.759 3.2h-12.8c-3.535 0-6.4 2.865-6.4 6.4v12.8c0 3.535 2.865 6.4 6.4 6.4h12.8c3.535 0 6.4-2.865 6.4-6.4v-12.8c0-3.535-2.865-6.4-6.4-6.4z"></path>
<path fill="none" stroke="#02897a" style="stroke: var(--color2, #02897a)" stroke-linejoin="round" stroke-linecap="round" stroke-miterlimit="4" stroke-width="2.56" d="M20.48 15.194c0.158 1.065-0.024 2.153-0.52 3.109s-1.281 1.731-2.243 2.215c-0.962 0.484-2.052 0.653-3.115 0.482s-2.046-0.673-2.807-1.435-1.264-1.744-1.435-2.807c-0.171-1.063-0.003-2.153 0.482-3.115s1.259-1.747 2.215-2.243c0.956-0.496 2.044-0.678 3.109-0.52 1.087 0.161 2.093 0.667 2.869 1.444s1.283 1.783 1.444 2.869z"></path>
<path fill="none" stroke="#02897a" style="stroke: var(--color2, #02897a)" stroke-linejoin="round" stroke-linecap="round" stroke-miterlimit="4" stroke-width="2.56" d="M22.399 8.96h0.013"></path>
</symbol>
<symbol id="icon-cursor" viewBox="0 0 21 32">
<path fill="#fff" style="fill: var(--color3, #fff)" d="M19.042 18.007l-17.21-17.21c-0.202-0.219-0.471-0.319-0.756-0.319-0.134 0-0.286 0.034-0.403 0.084-0.403 0.168-0.672 0.555-0.672 0.992v25.277c0 0.437 0.269 0.824 0.672 0.992 0.118 0.050 0.269 0.084 0.403 0.084 0.286 0 0.555-0.118 0.756-0.319l5.244-5.244 3.21 7.597c0.235 0.538 0.857 0.807 1.412 0.571l2.975-1.26c0.538-0.235 0.807-0.857 0.571-1.412l-3.378-8h6.42c0.437 0 0.824-0.269 0.992-0.672 0.168-0.387 0.084-0.857-0.235-1.16z"></path>
</symbol>
<symbol id="icon-heart" viewBox="0 0 34 32">
<path fill="#fff" style="fill: var(--color3, #fff)" d="M17.067 30.103c0.305 0 0.61-0.114 0.838-0.343l11.867-11.429c0.171-0.171 4.362-4 4.362-8.571 0-5.581-3.41-8.914-9.105-8.914-3.333 0-6.457 2.629-7.962 4.114-1.505-1.486-4.629-4.114-7.962-4.114-5.695 0-9.105 3.333-9.105 8.914 0 4.571 4.191 8.4 4.343 8.533l11.886 11.467c0.229 0.229 0.533 0.343 0.838 0.343z"></path>
</symbol>
<symbol id="icon-tick" viewBox="0 0 39 32">
<path fill="#fff" style="fill: var(--color3, #fff)" d="M38.808 1.462c-0.769-0.785-2.016-0.785-2.785 0l-23.593 24.095-9.069-9.262c-0.769-0.785-2.016-0.785-2.785 0s-0.769 2.059 0 2.844l10.461 10.683c0.769 0.785 2.016 0.785 2.785 0l24.985-25.516c0.769-0.785 0.769-2.059 0-2.844z"></path>
</symbol>
<symbol id="icon-time" viewBox="0 0 26 32">
<path fill="#fff" style="fill: var(--color3, #fff)" d="M23.664 2.628h1.614c0.302 0 0.538-0.235 0.538-0.538v-1.076c0-0.303-0.235-0.538-0.538-0.538h-24.74c-0.303 0-0.538 0.235-0.538 0.538v1.076c0 0.303 0.235 0.538 0.538 0.538h1.613c0 6.218 2.975 10.723 6.269 12.908-3.294 2.185-6.269 6.689-6.269 12.908h-1.613c-0.303 0-0.538 0.235-0.538 0.538v1.076c0 0.302 0.235 0.538 0.538 0.538h24.74c0.302 0 0.538-0.235 0.538-0.538v-1.076c0-0.302-0.235-0.538-0.538-0.538h-1.614c0-6.218-2.975-10.723-6.269-12.908 3.294-2.185 6.269-6.689 6.269-12.908zM21.513 2.628c0 2.454-0.555 4.622-1.429 6.454h-14.353c-0.874-1.832-1.429-4-1.429-6.454h17.21zM20.555 23.065h-15.294c1.244-3.244 3.479-5.546 5.714-6.454h3.866c2.235 0.908 4.471 3.21 5.714 6.454z"></path>
</symbol>
<symbol id="icon-triangle" viewBox="0 0 29 32">
<path fill="#02897a" style="fill: var(--color2, #02897a)" d="M27.343 14.302c1.269 0.728 1.269 2.558 0 3.287l-23.642 13.57c-1.263 0.725-2.838-0.187-2.838-1.643v-27.14c0-1.456 1.575-2.368 2.838-1.643l23.642 13.57z"></path>
</symbol>
<symbol id="icon-facebook" viewBox="0 0 19 32">
<path fill="none" stroke="#02897a" style="stroke: var(--color2, #02897a)" stroke-linejoin="round" stroke-linecap="round" stroke-miterlimit="4" stroke-width="2.9091" d="M17.455 1.455h-4.364c-1.929 0-3.779 0.766-5.143 2.13s-2.13 3.214-2.13 5.143v4.364h-4.364v5.818h4.364v11.636h5.818v-11.636h4.364l1.455-5.818h-5.818v-4.364c0-0.386 0.153-0.756 0.426-1.029s0.643-0.426 1.029-0.426h4.364v-5.818z"></path>
</symbol>
<symbol id="icon-twitter" viewBox="0 0 38 32">
<path fill="none" stroke="#02897a" style="stroke: var(--color2, #02897a)" stroke-linejoin="round" stroke-linecap="round" stroke-miterlimit="4" stroke-width="3.2" d="M36.8 1.616c-1.532 1.081-3.229 1.907-5.024 2.448-0.964-1.108-2.244-1.893-3.669-2.25s-2.924-0.267-4.296 0.257c-1.372 0.524-2.55 1.456-3.375 2.671s-1.256 2.654-1.237 4.122v1.6c-2.812 0.073-5.598-0.551-8.11-1.815s-4.673-3.131-6.29-5.433c0 0-6.4 14.4 8 20.8-3.295 2.237-7.221 3.358-11.2 3.2 14.4 8 32 0 32-18.4-0.001-0.446-0.044-0.89-0.128-1.328 1.633-1.61 2.785-3.644 3.328-5.872v0z"></path>
</symbol>
<symbol id="icon-wave" viewBox="0 0 41 32">
<path fill="#fff" style="fill: var(--color3, #fff)" d="M21.673 12.824l2.674 1.245 3.98-1.184v-2.776c0-4.714-3.98-8.49-8.735-8.49-4.735 0-8.735 3.755-8.735 8.429v12.653c0 1.163-0.939 2.082-2.082 2.082s-2.082-0.918-2.082-2.082v-5.347h-6.694c0 5.367 0 5.429 0 5.429 0 4.837 3.918 8.755 8.755 8.755 4.796 0 8.755-3.857 8.755-8.633v-12.49c0-1.143 0.939-2.082 2.082-2.082s2.082 0.939 2.082 2.082v2.408zM32.49 17.355v5.612c0 1.143-0.939 2.061-2.082 2.061s-2.082-0.918-2.082-2.061v-5.51l-3.98 1.184-2.674-1.245v5.469c0 4.796 3.939 8.673 8.755 8.673 4.837 0 8.755-3.918 8.755-8.755 0 0 0-0.061 0-5.429h-6.694z"></path>
</symbol>
<symbol id="icon-menu" viewBox="0 0 36 32">
<path d="M1.199 4.002c0-0.637 0.253-1.247 0.703-1.697s1.061-0.703 1.697-0.703h28.8c0.637 0 1.247 0.253 1.697 0.703s0.703 1.061 0.703 1.697-0.253 1.247-0.703 1.697c-0.45 0.45-1.060 0.703-1.697 0.703h-28.8c-0.637 0-1.247-0.253-1.697-0.703s-0.703-1.061-0.703-1.697z"></path>
<path d="M1.199 16.002c0-0.637 0.253-1.247 0.703-1.697s1.061-0.703 1.697-0.703h28.8c0.637 0 1.247 0.253 1.697 0.703s0.703 1.061 0.703 1.697-0.253 1.247-0.703 1.697c-0.45 0.45-1.060 0.703-1.697 0.703h-28.8c-0.637 0-1.247-0.253-1.697-0.703s-0.703-1.061-0.703-1.697z"></path>
<path d="M1.199 28.002c0-0.637 0.253-1.247 0.703-1.697s1.061-0.703 1.697-0.703h28.8c0.637 0 1.247 0.253 1.697 0.703s0.703 1.060 0.703 1.697c0 0.636-0.253 1.247-0.703 1.697s-1.060 0.703-1.697 0.703h-28.8c-0.637 0-1.247-0.253-1.697-0.703s-0.703-1.061-0.703-1.697z"></path>
</symbol>
</defs>
</svg>
